<?xml version="1.0" standalone="no"?>
<!DOCTYPE svg PUBLIC "-//W3C//DTD SVG 20010904//EN"
 "http://www.w3.org/TR/2001/REC-SVG-20010904/DTD/svg10.dtd">
<svg version="1.0" xmlns="http://www.w3.org/2000/svg"
 width="2000.000000pt" height="2000.000000pt" viewBox="0 0 2000.000000 2000.000000"
 preserveAspectRatio="xMidYMid meet">

<g transform="translate(0.000000,2000.000000) scale(0.100000,-0.100000)"
fill="#000000" stroke="none">
<path d="M11355 11474 c-62 -9 -236 -55 -279 -73 -66 -29 -74 -73 -17 -86 16
-3 37 -15 47 -26 16 -18 32 -19 216 -19 l199 0 57 -29 c74 -38 126 -97 151
-173 15 -46 30 -57 38 -29 8 32 27 20 31 -19 2 -20 12 -40 23 -48 28 -20 28
-157 -1 -187 -43 -44 -81 -94 -96 -126 -40 -87 -60 -116 -112 -168 -68 -67
-174 -122 -282 -145 -103 -22 -116 -21 -128 12 -6 15 -13 124 -16 242 -7 245
-23 478 -37 531 -13 50 -60 73 -106 51 -31 -15 -46 -42 -23 -42 17 0 11 -46
-9 -71 -10 -13 -22 -35 -26 -49 -4 -14 -13 -34 -20 -45 -32 -52 -51 -260 -60
-663 -5 -253 -5 -253 19 -307 15 -30 33 -56 45 -60 11 -3 23 -14 26 -25 3 -10
19 -23 35 -29 17 -6 30 -17 30 -27 0 -14 -8 -16 -50 -12 -37 4 -50 2 -50 -8 0
-45 120 -41 165 6 28 29 54 119 55 191 0 61 15 71 121 80 225 18 381 79 506
197 61 58 163 189 163 210 0 4 9 24 20 45 13 24 27 83 36 156 15 107 15 128 0
237 -22 173 -57 248 -162 351 -110 108 -214 152 -374 158 -58 2 -118 1 -135
-1z"/>
<path d="M7110 11434 c-44 -9 -154 -45 -196 -65 -23 -10 -44 -19 -48 -19 -3 0
-44 -24 -90 -54 -143 -92 -291 -246 -351 -366 -82 -162 -71 -275 36 -381 61
-60 163 -116 253 -138 52 -13 121 -45 130 -60 4 -5 -18 -32 -46 -60 -68 -64
-97 -115 -80 -142 7 -10 12 -42 12 -70 0 -37 5 -56 18 -65 15 -13 16 -15 1
-26 -23 -19 -13 -36 39 -62 71 -35 196 -50 301 -36 111 16 242 81 307 154 104
115 92 289 -28 402 -37 35 -187 121 -227 131 -14 3 -37 12 -51 19 -14 8 -72
29 -130 48 -214 69 -235 86 -235 180 1 69 15 96 99 186 108 116 230 197 353
234 67 21 95 20 143 -3 22 -11 49 -17 60 -14 13 4 30 -6 53 -31 19 -20 39 -36
45 -36 21 0 34 42 28 89 -9 68 -46 116 -117 151 -52 27 -73 31 -157 35 -53 2
-108 1 -122 -1z m-640 -723 c9 -44 22 -69 51 -101 45 -49 49 -70 16 -70 -44 0
-107 91 -107 154 0 92 22 101 40 17z m663 -425 c18 -8 45 -25 61 -38 40 -33
30 -69 -27 -105 -134 -86 -328 -100 -327 -25 1 25 27 53 100 104 119 82 137
88 193 64z m147 -30 c16 -20 9 -60 -13 -64 -21 -4 -31 19 -23 53 7 28 18 32
36 11z"/>
<path d="M12570 11414 c-200 -50 -293 -122 -232 -177 26 -24 79 -20 137 8 28
14 57 25 65 25 8 0 44 9 78 20 46 14 92 20 162 20 95 0 99 1 119 26 27 34 26
42 -6 76 -26 27 -30 28 -127 27 -72 0 -129 -8 -196 -25z"/>
<path d="M13865 11428 c-27 -15 -35 -28 -35 -60 0 -45 31 -58 145 -58 73 -1
115 -6 155 -20 30 -11 64 -19 75 -20 11 0 41 -11 67 -25 56 -30 108 -32 131
-7 56 61 -26 123 -232 176 -108 28 -268 35 -306 14z"/>
<path d="M7900 11421 c-81 -12 -203 -40 -214 -51 -5 -5 -10 -35 -10 -67 l-1
-57 45 -8 c62 -11 73 -29 65 -103 -16 -158 -28 -449 -29 -735 -1 -173 -5 -320
-9 -326 -4 -7 -19 -15 -34 -19 -47 -11 -93 -53 -93 -83 0 -20 3 -23 12 -14 19
19 28 14 44 -23 10 -24 21 -35 35 -35 12 0 97 -2 189 -4 159 -4 170 -3 187 16
10 11 30 26 45 34 15 8 32 23 38 34 9 17 6 25 -19 50 -16 17 -40 30 -53 30
-27 1 -50 17 -66 47 -8 15 -12 107 -13 295 0 278 -7 435 -30 658 -14 142 -10
172 25 188 13 6 26 21 28 34 2 13 17 32 35 43 43 27 40 54 -10 79 -45 22 -93
27 -167 17z"/>
<path d="M9368 11381 c-21 -4 -46 -15 -55 -24 -10 -8 -29 -17 -43 -19 -20 -2
-24 -8 -22 -30 2 -20 -3 -28 -20 -33 -13 -4 -31 -14 -40 -22 -11 -10 -26 -13
-43 -9 -22 6 -33 -1 -73 -44 -40 -43 -99 -136 -131 -205 -49 -107 -91 -284
-91 -383 1 -228 125 -529 212 -514 10 2 30 -6 44 -17 15 -12 32 -21 39 -21 6
0 21 -11 33 -25 12 -14 26 -25 32 -25 5 0 10 -11 10 -25 0 -39 32 -50 155 -50
102 0 114 2 168 29 116 59 193 148 254 291 21 50 23 64 14 95 -6 19 -20 41
-31 48 -19 12 -26 9 -65 -22 -24 -20 -50 -36 -58 -36 -9 0 -32 -24 -53 -52
-88 -124 -139 -156 -229 -142 -95 14 -173 149 -211 366 -18 104 -16 180 10
303 39 191 110 300 225 345 48 19 60 20 103 10 26 -7 59 -21 72 -31 13 -10 35
-18 48 -17 18 2 23 -1 21 -18 -2 -18 4 -23 35 -27 47 -6 62 11 62 73 0 136
-208 265 -372 231z"/>
<path d="M10335 11384 c-37 -8 -180 -33 -219 -40 -46 -7 -116 -74 -116 -112 0
-27 -24 -39 -44 -22 -34 28 -38 -20 -44 -511 -4 -393 -3 -484 9 -511 8 -18 12
-56 11 -84 -3 -36 1 -54 12 -63 9 -8 16 -19 16 -26 0 -20 61 -61 101 -69 21
-3 52 -14 69 -23 37 -18 171 -20 230 -3 19 6 87 15 150 20 154 13 168 17 172
43 2 12 15 28 31 35 15 7 27 18 27 23 0 6 12 9 27 7 39 -4 41 23 6 62 -26 29
-37 33 -108 41 -44 4 -163 8 -265 8 -151 1 -190 4 -208 17 -25 17 -30 65 -8
83 32 27 165 62 264 71 57 4 106 11 110 14 3 4 1 16 -6 26 -10 16 -9 21 9 31
15 8 24 8 32 0 31 -31 77 6 77 62 0 27 -8 44 -34 71 -33 35 -35 36 -110 36
-78 0 -238 -35 -295 -65 -36 -18 -75 -19 -89 -2 -5 6 -13 80 -17 162 -3 83
-12 217 -19 299 -13 161 -9 181 34 203 31 16 326 18 418 3 65 -11 116 -5 92
10 -7 4 -9 13 -6 19 9 15 51 14 75 -1 26 -16 47 2 56 48 10 57 -9 97 -59 122
-39 20 -58 22 -202 21 -87 -1 -168 -3 -179 -5z m-335 -1311 c0 -9 16 -30 36
-48 21 -19 31 -36 25 -39 -15 -10 -51 12 -51 30 0 8 -11 19 -25 24 -24 9 -35
47 -18 63 9 10 33 -13 33 -30z"/>
<path d="M11776 10944 c-6 -24 -3 -65 11 -124 l6 -25 7 25 c8 31 1 150 -10
150 -4 0 -11 -12 -14 -26z"/>
<path d="M12710 10791 c-111 -39 -186 -109 -224 -209 -34 -89 -35 -162 -1
-238 67 -152 186 -225 347 -212 124 10 210 69 271 187 34 64 37 78 37 150 0
94 -28 166 -89 229 -64 66 -131 94 -231 98 -47 2 -96 -1 -110 -5z"/>
<path d="M14140 10792 c-67 -19 -141 -72 -186 -135 -50 -70 -72 -167 -55 -250
34 -166 165 -277 329 -277 138 0 235 58 307 185 27 46 29 58 29 155 1 120 -7
142 -82 222 -69 73 -129 100 -232 104 -47 1 -96 0 -110 -4z"/>
<path d="M10740 10010 c0 -5 5 -10 10 -10 6 0 10 5 10 10 0 6 -4 10 -10 10 -5
0 -10 -4 -10 -10z"/>
<path d="M6710 10000 c0 -5 5 -10 10 -10 6 0 10 5 10 10 0 6 -4 10 -10 10 -5
0 -10 -4 -10 -10z"/>
<path d="M10920 9911 c0 -11 5 -23 10 -26 6 -4 10 5 10 19 0 14 -4 26 -10 26
-5 0 -10 -9 -10 -19z"/>
<path d="M13082 9914 c-31 -21 -31 -78 1 -98 62 -39 129 -51 282 -51 203 0
265 23 265 98 0 16 -10 31 -26 42 -23 15 -32 15 -77 3 -73 -18 -289 -15 -346
6 -54 20 -71 20 -99 0z"/>
</g>
</svg>
